PathFileType	4	(X/Y/Z)	Run_300 02
DataRate	CameraRate	NumFrames	NumMarkers	Units	OrigDataRate	OrigDataStartFrame	OrigNumFrames
100	100	4	45	mm	100	281	137
Frame#	Time	LASI			RASI			LPSI			RPSI			RTH1			RTH2			RTH3			LTH1			LTH2			LTH3			RTB1			RTB2			RTB3			RLMAL			RMMAL			LTB1			LTB2			LTB3			RCAL			RTOE			RMT5			LCAL			LTOE			LMT5			LACR			RACR			CLAV			C7			LPSH			RUA1			RUA2			RUA3			RLEL			RMEL			LUA1			LUA2			LUA3			LLEL			LMEL			RFAsuperior			RFAradius			RFAulna			LFAsuperior			LFAradius			LFAulna		
		X1	Y1	Z1	X2	Y2	Z2	X3	Y3	Z3	X4	Y4	Z4	X5	Y5	Z5	X6	Y6	Z6	X7	Y7	Z7	X8	Y8	Z8	X9	Y9	Z9	X10	Y10	Z10	X11	Y11	Z11	X12	Y12	Z12	X13	Y13	Z13	X14	Y14	Z14	X15	Y15	Z15	X16	Y16	Z16	X17	Y17	Z17	X18	Y18	Z18	X19	Y19	Z19	X20	Y20	Z20	X21	Y21	Z21	X22	Y22	Z22	X23	Y23	Z23	X24	Y24	Z24	X25	Y25	Z25	X26	Y26	Z26	X27	Y27	Z27	X28	Y28	Z28	X29	Y29	Z29	X30	Y30	Z30	X31	Y31	Z31	X32	Y32	Z32	X33	Y33	Z33	X34	Y34	Z34	X35	Y35	Z35	X36	Y36	Z36	X37	Y37	Z37	X38	Y38	Z38	X39	Y39	Z39	X40	Y40	Z40	X41	Y41	Z41	X42	Y42	Z42	X43	Y43	Z43	X44	Y44	Z44	X45	Y45	Z45	

281	  2.810000	932.841042	1082.868536	-430.184236	939.738586	1068.775301	-201.571228	770.424839	1123.047585	-361.996830	773.821790	1118.722374	-272.773746	798.589324	821.945077	-162.705586	850.944733	740.452041	-201.328860	755.615759	659.566061	-199.467795	901.078537	874.563700	-485.244946	1024.846861	815.757360	-477.409110	1024.567019	708.412978	-466.876044	708.424387	413.384109	-263.629324	644.743817	378.054174	-224.769278	607.552704	259.444262	-280.193838	518.727898	174.636262	-272.294738	547.792659	192.205695	-350.749865	1054.407897	499.586312	-433.199868	925.274625	464.821364	-456.634155	928.452799	353.559819	-423.441214	454.881076	187.415901	-337.016201	623.499585	 62.105872	-331.872749	563.867709	 61.612491	-257.221884	760.966492	283.954583	-374.721386	935.996377	148.992714	-413.040710	873.498578	170.280005	-476.436521	867.380907	1591.534434	-460.786451	936.639766	1559.620703	-156.882843	979.266087	1505.428746	-302.226101	868.844922	1596.557010	-300.745851	783.762511	1561.676606	-447.712818	913.928887	1406.297262	-69.517789	834.128828	1356.756758	-58.822017	853.874689	1298.952852	-24.511534	875.213923	1233.255165	-11.140123	813.796815	1223.885617	-81.268848	750.868564	1503.225728	-511.061852	678.769422	1444.591019	-487.085990	662.726572	1412.930884	-553.618380	637.206205	1341.559268	-584.697279	621.768294	1326.795334	-494.913169	923.019162	1202.090429	-64.089454	1039.546038	1296.042545	-193.457492	1054.622989	1230.238878	-194.054224	701.521936	1272.790761	-560.751642	869.660886	1296.863114	-518.387383	859.542215	1230.859668	-533.421314	
282	  2.820000	934.297201	1091.999061	-430.690075	942.122164	1076.453494	-202.612352	773.774191	1132.315351	-362.650208	776.567527	1126.749798	-272.528759	793.431093	830.964107	-161.708944	843.096776	747.999573	-198.223638	744.869315	670.633339	-197.353248	901.648425	883.481128	-485.562730	1024.843606	823.261152	-476.560328	1023.782149	715.312614	-465.562858	693.359365	424.202731	-257.636351	627.806991	390.324049	-220.074603	592.467635	269.834824	-275.466093	503.315215	185.196594	-268.840685	535.142368	201.529474	-346.121702	1061.986709	502.744646	-432.372532	936.594469	456.355662	-455.571888	949.908395	345.570229	-421.989004	443.392509	204.565467	-333.970391	597.446292	 64.156607	-330.923068	538.463678	 66.340969	-256.529707	789.488835	261.105888	-373.348330	975.833816	141.873408	-410.958678	911.821818	157.404897	-474.656019	865.973646	1599.219671	-460.694094	937.320691	1568.521110	-157.933469	979.478410	1514.132324	-302.867624	869.009720	1604.517801	-301.196924	782.551231	1570.100275	-445.847901	915.166964	1415.987745	-69.822667	835.921959	1366.013795	-59.517604	855.817867	1308.191461	-25.129240	878.026900	1242.013372	-12.415887	814.997535	1233.066765	-81.573909	747.902495	1512.351436	-507.021209	676.628571	1454.529863	-479.307305	657.509790	1422.914261	-545.054154	629.944366	1350.995000	-574.581774	617.778400	1337.434308	-484.388400	924.855110	1212.463116	-67.075473	1036.377066	1310.435107	-198.091213	1052.655190	1244.932871	-200.069817	695.089487	1282.592895	-551.934843	864.656282	1307.302585	-515.716691	854.158239	1241.034042	-528.951264	
283	  2.830000	935.714664	1100.188854	-431.129002	944.443919	1083.633687	-203.356552	776.928870	1140.414839	-362.915275	779.196782	1134.020991	-272.387334	788.959986	839.557949	-160.921037	836.479619	755.298312	-194.777696	736.290657	680.786768	-195.959414	901.801079	891.281274	-485.553510	1024.001910	829.266688	-475.790025	1021.364479	720.542682	-463.831199	680.994560	434.273719	-253.033710	613.722709	402.008932	-216.623918	578.712047	280.376765	-271.765846	488.806917	197.200654	-265.736422	522.475250	212.131433	-342.267315	1068.139831	504.658589	-432.223173	947.261804	447.045918	-454.312363	971.067132	337.605024	-420.508154	432.557457	222.465127	-330.642480	573.937091	 67.521911	-329.504943	514.727380	 74.343605	-255.857154	819.199868	239.076676	-370.971646	1015.235231	136.246971	-408.324723	949.979233	145.660869	-472.023077	865.315278	1606.302435	-460.635587	937.628333	1576.622287	-158.906556	979.502164	1521.952396	-303.407317	869.065964	1611.687928	-301.701855	781.887616	1578.062968	-444.368623	915.833733	1424.957640	-70.155055	837.201606	1374.632605	-59.932186	857.221208	1316.669834	-25.682994	880.060209	1250.006135	-13.587119	815.534863	1241.540241	-81.801498	745.721799	1520.977852	-503.523788	675.358968	1464.179572	-471.890369	653.394786	1432.143195	-536.581692	623.727256	1359.756314	-564.393878	614.856583	1347.407690	-473.872885	925.922264	1221.796223	-69.771922	1033.123088	1323.120128	-202.072278	1050.333159	1257.919761	-204.976445	689.680912	1291.621827	-543.093528	860.450720	1316.806696	-513.034163	849.584763	1250.336113	-524.658608	
284	  2.840000	937.105728	1107.059696	-431.285363	946.488197	1090.038125	-203.736277	779.738055	1147.182537	-362.814834	781.636035	1140.502612	-272.311246	785.184158	847.667259	-160.429189	831.487582	762.160570	-191.620562	730.424118	689.448377	-195.179332	901.261622	897.249446	-484.873380	1021.912179	833.225803	-475.239793	1017.027246	723.716667	-461.670015	671.298217	443.246335	-250.707361	602.993716	412.763833	-214.658876	565.782491	291.296144	-269.330177	474.286943	210.930251	-263.111379	508.844186	224.201566	-339.308953	1072.925541	505.187914	-432.438840	957.554118	436.848848	-453.128067	991.748654	329.860907	-418.959788	421.264249	240.861564	-327.406655	552.793073	 71.953109	-327.179940	492.333711	 85.681197	-254.794676	849.567498	218.507337	-367.561281	1053.547753	132.349635	-404.941918	987.465217	135.271933	-468.381515	865.155030	1612.629606	-460.641579	937.613114	1583.741082	-159.807337	979.469095	1528.731034	-303.932802	869.011005	1617.810647	-302.285630	781.606705	1585.281289	-443.259686	916.171652	1432.858245	-70.713513	838.088620	1382.372373	-60.024256	858.210034	1324.180852	-26.160767	881.343796	1257.073283	-14.544681	815.410912	1249.136219	-81.866791	744.158642	1528.908394	-500.621171	674.916053	1473.183171	-465.037335	650.239260	1440.453988	-528.423256	618.547912	1367.633690	-554.448931	612.905384	1356.408657	-463.624965	926.291415	1229.930609	-72.048395	1029.904131	1333.867731	-205.408142	1047.703474	1268.976530	-208.961369	685.288835	1299.643654	-534.531078	857.008242	1325.282635	-510.421394	845.814412	1258.581922	-520.639951	
